<svg xmlns="http://www.w3.org/2000/svg" viewBox="0 0 32 32" width="32" height="32">
  <rect width="32" height="32" rx="7" fill="#4f46e5"/>
  <!-- pages (livre ouvert) -->
  <path d="M16 9.8C12.7 8.3 9.4 8.3 6.6 9.4L6.6 21.2C9.4 20.1 12.7 20.1 16 21.6Z" fill="#ffffff"/>
  <path d="M16 9.8C19.3 8.3 22.6 8.3 25.4 9.4L25.4 21.2C22.6 20.1 19.3 20.1 16 21.6Z" fill="#ffffff"/>
  <!-- reliure -->
  <path d="M16 9.8V21.6" stroke="#4f46e5" stroke-width="1.4" stroke-linecap="round"/>
  <!-- lignes de texte -->
  <g stroke="#a5b4fc" stroke-width="1.1" stroke-linecap="round">
    <path d="M9.4 12.6 13.4 13.1"/>
    <path d="M9.4 15.1 13.4 15.6"/>
    <path d="M9.4 17.6 13.4 18.1"/>
    <path d="M22.6 12.6 18.6 13.1"/>
    <path d="M22.6 15.1 18.6 15.6"/>
    <path d="M22.6 17.6 18.6 18.1"/>
  </g>
</svg>
